<svg enable-background="new 0 0 64 64" viewBox="0 0 64 64" xmlns="http://www.w3.org/2000/svg"><path d="m6 12c0-3.3 2.7-6 6-6h40c3.3 0 6 2.7 6 6v32c0 3.3-2.7 6-6 6h-40c-3.3 0-6-2.7-6-6z" fill="#fff200"/><path d="m12 4c-4.4 0-8 3.6-8 8v34c0 4.4 3.6 8 8 8h38v-3h6v-26.7c0 11-14.3 20-32 20-8.8 0-16-2.7-16-6v-26.3c0-2.2 1.8-4 4-4h6v-4z" fill="#facc2e"/><path clip-rule="evenodd" d="m52 8h-36v-4h36c4.4 0 8 3.6 8 8v34c0 4.4-3.6 8-8 8h-4v-6h4c2.2 0 4-1.8 4-4v-32c0-2.2-1.8-4-4-4z" fill="#314a52" fill-rule="evenodd"/><path d="m18 16c0 2.2-1.8 4-4 4s-4-1.8-4-4 1.8-4 4-4 4 1.8 4 4zm8-4c-2.2 0-4 1.8-4 4s1.8 4 4 4 4-1.8 4-4-1.8-4-4-4zm12 0c-2.2 0-4 1.8-4 4s1.8 4 4 4 4-1.8 4-4-1.8-4-4-4zm12 0c-2.2 0-4 1.8-4 4s1.8 4 4 4 4-1.8 4-4-1.8-4-4-4zm-36 12c-2.2 0-4 1.8-4 4s1.8 4 4 4 4-1.8 4-4-1.8-4-4-4zm36 0c-2.2 0-4 1.8-4 4s1.8 4 4 4 4-1.8 4-4-1.8-4-4-4z" fill="#fff"/><path d="m4 44c0 4.4 3.6 8 8 8h40c4.4 0 8-3.6 8-8v-20h4v36h-4v-4h-56v4h-4v-36h4zm34-20c-2.2 0-4 1.8-4 4s1.8 4 4 4 4-1.8 4-4-1.8-4-4-4zm-12 12c-2.2 0-4 1.8-4 4s1.8 4 4 4 4-1.8 4-4-1.8-4-4-4zm-12 8c2.2 0 4-1.8 4-4s-1.8-4-4-4-4 1.8-4 4 1.8 4 4 4z" fill="#0779e4"/><path d="m42 40c0 2.2-1.8 4-4 4s-4-1.8-4-4 1.8-4 4-4 4 1.8 4 4zm8-4c-2.2 0-4 1.8-4 4s1.8 4 4 4 4-1.8 4-4-1.8-4-4-4zm-24-12c-2.2 0-4 1.8-4 4s1.8 4 4 4 4-1.8 4-4-1.8-4-4-4z" fill="#d7385e"/></svg>